<!DOCTYPE svg PUBLIC "-//W3C//DTD SVG 1.1//EN" "http://www.w3.org/Graphics/SVG/1.1/DTD/svg11.dtd">
<!-- Uploaded to: SVG Repo, www.svgrepo.com, Transformed by: SVG Repo Mixer Tools -->
<svg version="1.1" id="Layer_1" xmlns="http://www.w3.org/2000/svg" xmlns:xlink="http://www.w3.org/1999/xlink" viewBox="0 0 100 100" enable-background="new 0 0 100 100" xml:space="preserve" width="800px" height="800px" fill="#000000" stroke="#000000" stroke-width="0.2">
<g id="SVGRepo_bgCarrier" stroke-width="0"/>
<g id="SVGRepo_tracerCarrier" stroke-linecap="round" stroke-linejoin="round"/>
<g id="SVGRepo_iconCarrier"> <g> <path fill="#e6e6e6" d="M81.186,88.63l-4.69-3.566c0,0,5.078-2.345,7.271-2.357V60.401l-2.972-2.772v-6.644l2.972-1.04V26.311 h-67.86v13.185l3.323,1.661v3.322l2.149,3.517l-5.472,3.737v38.236c0.949-0.915,2.037-1.428,3.225-1.047 c4.104,1.319,4.397-1.905,4.397-1.905s0.782,3.81,0.168,7.473h9.523l3.274-17.146l2,17.146h28.892l2.661-8.938l3.713,8.938h7.841 L81.186,88.63z"/> <g> <path fill="#e6e6e6" d="M79.121,87.06c-1.456,0.562-2.624,1.101-2.624,1.101l4.69,3.566l0.196,2.764h0.219l-0.415-5.861 L79.121,87.06z"/> <path fill="#e6e6e6" d="M23.878,92.941c-0.037,0.512-0.094,1.032-0.18,1.55h0.233C23.929,93.944,23.91,93.422,23.878,92.941z"/> <polygon fill="#e6e6e6" points="20.045,48.908 15.908,51.733 15.908,54.83 21.38,51.093 "/> <rect x="15.908" y="26.311" fill="#e6e6e6" width="67.86" height="3.097"/> <polygon fill="#e6e6e6" points="80.796,60.726 83.767,63.498 83.767,60.401 80.796,57.629 "/> </g> <path fill="#f4d7d7" d="M48.56,33.474L48.56,33.474c-4.388,0-7.944,3.557-7.944,7.943c0,3.872,2.193,9.029,7.944,14.777l0,0 c5.751-5.748,7.944-10.905,7.944-14.777C56.504,37.03,52.948,33.474,48.56,33.474z M48.56,43.456c-1.639,0-2.968-1.327-2.968-2.965 c0-1.637,1.329-2.965,2.968-2.965c1.639,0,2.966,1.329,2.966,2.965C51.526,42.128,50.199,43.456,48.56,43.456z"/> <circle fill="#e6e6e6" cx="15.908" cy="15.91" r="10.402"/> <g> <path fill="#e6e6e6" d="M94.494,15.91c0-5.744-4.658-10.401-10.402-10.401H15.908c5.745,0,10.402,4.657,10.402,10.401 c0,5.181-3.792,9.464-8.749,10.258l0.095-0.008c-0.09,0.015-0.182,0.022-0.273,0.035c-0.176,0.025-0.351,0.053-0.529,0.069 c-0.311,0.03-0.626,0.048-0.945,0.048c0,0,0,0,0,0h68.185c2.119,0,4.089-0.637,5.733-1.728l-7.539-6.579l11.258,2.228 C94.147,18.915,94.494,17.455,94.494,15.91z"/> </g> <circle fill="#FFFFFF" cx="24.127" cy="77.415" r="2.949"/> <path fill="#e6e6e6" d="M42.39,79.869c2.831-4.011-0.841-11.123,16.097-11.249s16.162-9.353,19.846-4.55s-3.792,6.573-2.781,9.227 c1.011,2.654-11.629,2.528-12.767,8.216c-1.138,5.688-10.744,7.539-12.261,4.212c-1.517-3.327-1.896-3.833-5.688-2.19 C41.043,85.177,40.172,83.01,42.39,79.869z"/> <g> <path fill="#e6e6e6" d="M48.56,56.7c-0.129,0-0.259-0.049-0.357-0.148c-5.218-5.215-8.092-10.59-8.092-15.135 c0-4.659,3.79-8.449,8.449-8.449s8.45,3.79,8.45,8.449c0,4.544-2.874,9.919-8.092,15.135C48.818,56.651,48.689,56.7,48.56,56.7z M48.56,33.979c-4.101,0-7.438,3.337-7.438,7.438c0,4.172,2.638,9.15,7.438,14.058c4.801-4.908,7.439-9.886,7.439-14.058 C55.998,37.316,52.661,33.979,48.56,33.979z M48.56,43.961c-1.915,0-3.474-1.557-3.474-3.471s1.558-3.471,3.474-3.471 c1.914,0,3.472,1.557,3.472,3.471S50.474,43.961,48.56,43.961z M48.56,38.031c-1.358,0-2.462,1.103-2.462,2.46 s1.105,2.46,2.462,2.46c1.357,0,2.46-1.103,2.46-2.46S49.917,38.031,48.56,38.031z"/> </g> <g> <g> <path fill="#e6e6e6" d="M15.908,26.817C9.893,26.817,5,21.924,5,15.91S9.893,5.003,15.908,5.003 c6.014,0,10.907,4.893,10.907,10.907S21.922,26.817,15.908,26.817z M15.908,6.015c-5.457,0-9.897,4.439-9.897,9.896 s4.439,9.896,9.897,9.896c5.457,0,9.896-4.439,9.896-9.896S21.364,6.015,15.908,6.015z"/> </g> <g> <path fill="#e6e6e6" d="M21.812,24.969c-0.061,0-0.123-0.011-0.183-0.035c-0.26-0.101-0.389-0.394-0.288-0.654 c2.773-7.14-0.013-10.76-1.339-11.984c-1.964-1.814-4.723-2.338-6.864-1.306c-1.539,0.743-2.588,2.472-2.738,4.51 c-0.144,1.955,0.589,3.677,1.959,4.607c1.371,0.931,2.871,0.965,4.012,0.096c0.987-0.753,1.382-1.952,1.005-3.053 c-0.221-0.646-0.556-1.05-1.024-1.236c-0.931-0.369-2.101,0.238-2.113,0.244c-0.248,0.13-0.553,0.036-0.683-0.21 c-0.131-0.246-0.038-0.551,0.208-0.683c0.064-0.035,1.587-0.832,2.955-0.294c0.752,0.296,1.295,0.92,1.614,1.851 c0.512,1.497-0.031,3.178-1.348,4.184c-1.16,0.886-3.134,1.335-5.193-0.062c-1.673-1.135-2.57-3.198-2.4-5.517 c0.176-2.399,1.443-4.448,3.307-5.347c2.512-1.213,5.722-0.621,7.99,1.473c1.478,1.365,4.593,5.373,1.596,13.093 C22.205,24.846,22.014,24.969,21.812,24.969z"/> </g> <g> <g> <path fill="#e6e6e6" d="M15.917,26.817c-0.279,0-0.508-0.226-0.508-0.506s0.224-0.506,0.503-0.506h0.005 c0.279,0,0.506,0.226,0.506,0.506S16.197,26.817,15.917,26.817z"/> </g> <g> <path fill="#e6e6e6" d="M15.917,26.817c-0.279,0-0.508-0.226-0.508-0.506s0.224-0.506,0.503-0.506h0.005 c0.279,0,0.506,0.226,0.506,0.506S16.197,26.817,15.917,26.817z"/> </g> <g> <path fill="#e6e6e6" d="M84.092,26.817H15.908c-0.279,0-0.506-0.226-0.506-0.506s0.226-0.506,0.506-0.506 c0.282,0,0.576-0.015,0.897-0.045c0.138-0.012,0.272-0.032,0.404-0.051l0.218-0.029c0.017-0.005,0.035-0.009,0.053-0.011 c4.823-0.772,8.323-4.876,8.323-9.758c0-5.456-4.439-9.896-9.897-9.896c-0.279,0-0.506-0.226-0.506-0.506 c0-0.279,0.226-0.506,0.506-0.506h68.185C90.107,5.003,95,9.896,95,15.91c0,1.564-0.335,3.089-0.996,4.533 c-0.097,0.213-0.327,0.33-0.558,0.286l-9.401-1.861l6.113,5.334c0.119,0.104,0.183,0.257,0.172,0.414s-0.094,0.301-0.225,0.388 C88.317,26.19,86.238,26.817,84.092,26.817z M20.491,25.806h63.601c1.723,0,3.398-0.445,4.883-1.292l-7.021-6.127 c-0.173-0.151-0.223-0.398-0.121-0.604c0.101-0.205,0.324-0.317,0.552-0.273l10.858,2.149c0.495-1.202,0.746-2.461,0.746-3.748 c0-5.456-4.439-9.896-9.897-9.896H20.493c3.73,1.735,6.322,5.518,6.322,9.896C26.815,20.272,24.281,24.069,20.491,25.806z"/> </g> <g> <path fill="#e6e6e6" d="M15.917,6.015c-0.279,0-0.508-0.226-0.508-0.506c0-0.279,0.224-0.506,0.503-0.506h0.005 c0.279,0,0.506,0.226,0.506,0.506C16.423,5.788,16.197,6.015,15.917,6.015z"/> </g> </g> </g> <g> <path fill="#e6e6e6" d="M81.601,94.997H73.76c-0.204,0-0.389-0.123-0.467-0.312l-3.168-7.625l-2.256,7.575 c-0.064,0.215-0.261,0.361-0.484,0.361H38.493c-0.257,0-0.473-0.192-0.502-0.447l-1.619-13.876l-2.656,13.912 c-0.045,0.238-0.254,0.411-0.497,0.411h-9.523c-0.149,0-0.29-0.065-0.386-0.179c-0.096-0.114-0.137-0.264-0.113-0.41 c0.348-2.072,0.232-4.215,0.076-5.637c-0.15,0.17-0.33,0.332-0.544,0.474c-0.922,0.61-2.185,0.664-3.753,0.159 c-0.889-0.285-1.777,0.02-2.719,0.929c-0.146,0.141-0.362,0.181-0.549,0.101c-0.187-0.079-0.308-0.262-0.308-0.465V51.733 c0-0.167,0.082-0.323,0.221-0.417l5.075-3.465l-1.899-3.107c-0.048-0.079-0.074-0.171-0.074-0.264V41.47l-3.044-1.521 c-0.171-0.086-0.279-0.261-0.279-0.452V26.311c0-0.279,0.226-0.506,0.506-0.506h67.86c0.279,0,0.506,0.226,0.506,0.506v23.635 c0,0.215-0.136,0.406-0.339,0.477l-2.633,0.921v6.065l2.811,2.622c0.102,0.096,0.16,0.23,0.16,0.37v22.306 c0,0.278-0.225,0.504-0.503,0.506c-1.564,0.008-4.801,1.325-6.286,1.967l4.008,3.048c0.116,0.088,0.188,0.222,0.198,0.367 l0.415,5.861c0.01,0.14-0.039,0.278-0.134,0.38C81.875,94.938,81.741,94.997,81.601,94.997z M74.097,93.985h6.961l-0.36-5.091 l-4.508-3.427c-0.141-0.107-0.216-0.281-0.197-0.457c0.019-0.177,0.129-0.33,0.291-0.404c0.197-0.091,4.543-2.088,6.977-2.371 V60.621l-2.811-2.622c-0.102-0.096-0.16-0.23-0.16-0.37v-6.644c0-0.215,0.136-0.406,0.339-0.477l2.633-0.921v-22.77H16.413v12.367 l3.044,1.521c0.171,0.086,0.279,0.261,0.279,0.452v3.18l2.075,3.396c0.14,0.23,0.076,0.529-0.147,0.681L16.413,52v36.912 c0.947-0.622,1.909-0.78,2.874-0.471c1.262,0.406,2.232,0.393,2.885-0.04c0.749-0.495,0.853-1.42,0.854-1.43 c0.023-0.25,0.225-0.445,0.475-0.459c0.233-0.011,0.473,0.157,0.523,0.403c0.031,0.151,0.715,3.554,0.259,7.069h8.518 l3.195-16.735c0.047-0.245,0.266-0.415,0.515-0.411c0.249,0.009,0.455,0.199,0.484,0.447l1.948,16.699h28.065l2.554-8.577 c0.061-0.205,0.244-0.35,0.458-0.361c0.215-0.01,0.411,0.113,0.493,0.311L74.097,93.985z"/> </g> <g> <g> <path fill="#e6e6e6" d="M24.972,71.992c-0.022,0-0.045-0.001-0.067-0.005c-0.277-0.037-0.471-0.289-0.435-0.565 c0.004-0.031,0.104-0.767,0.584-1.822c0.116-0.254,0.414-0.367,0.67-0.251c0.254,0.116,0.366,0.415,0.251,0.669 c-0.412,0.906-0.501,1.53-0.502,1.536C25.439,71.807,25.221,71.992,24.972,71.992z"/> </g> <g> <path fill="#e6e6e6" d="M27.47,67.468c-0.126,0-0.252-0.047-0.35-0.14c-0.202-0.193-0.209-0.513-0.015-0.715 c0.797-0.833,1.746-1.582,2.82-2.227c0.24-0.144,0.55-0.067,0.694,0.173c0.144,0.239,0.066,0.55-0.173,0.694 c-0.997,0.599-1.875,1.293-2.612,2.061C27.736,67.416,27.603,67.468,27.47,67.468z M33.326,63.861 c-0.208,0-0.403-0.129-0.476-0.337c-0.093-0.263,0.044-0.552,0.307-0.646c1.055-0.374,2.206-0.685,3.419-0.924 c0.273-0.054,0.54,0.125,0.594,0.399c0.054,0.274-0.125,0.54-0.399,0.594c-1.165,0.229-2.267,0.526-3.275,0.884 C33.439,63.851,33.382,63.861,33.326,63.861z M40.109,62.486c-0.26,0-0.481-0.199-0.503-0.463 c-0.024-0.278,0.183-0.523,0.461-0.546c1.109-0.093,2.283-0.14,3.489-0.14c0.286,0.015,0.52,0.223,0.52,0.506 c0,0.282-0.24,0.516-0.509,0.506c-1.189,0-2.335,0.046-3.415,0.137C40.138,62.485,40.124,62.486,40.109,62.486z M47.528,62.426 l-0.485-0.002c-0.279-0.002-0.504-0.231-0.501-0.51c0.002-0.277,0.229-0.501,0.506-0.501c0.001,0,0.003,0,0.004,0l0.476,0.002 c1,0,1.994-0.032,2.955-0.094c0.27-0.018,0.519,0.194,0.537,0.472c0.018,0.278-0.193,0.519-0.472,0.537 C49.566,62.394,48.55,62.426,47.528,62.426z M53.965,61.964c-0.246,0-0.462-0.18-0.5-0.43c-0.041-0.276,0.149-0.534,0.425-0.575 c1.151-0.173,2.279-0.398,3.354-0.669c0.271-0.067,0.546,0.096,0.614,0.367c0.068,0.271-0.096,0.546-0.367,0.614 c-1.106,0.279-2.266,0.511-3.45,0.689C54.016,61.963,53.99,61.964,53.965,61.964z M60.679,60.254 c-0.204,0-0.397-0.125-0.473-0.328c-0.099-0.261,0.034-0.553,0.295-0.651c1.084-0.408,2.127-0.878,3.101-1.397 c0.248-0.132,0.553-0.038,0.684,0.208c0.131,0.246,0.038,0.553-0.208,0.684c-1.013,0.54-2.097,1.028-3.222,1.451 C60.799,60.243,60.738,60.254,60.679,60.254z M66.773,56.98c-0.155,0-0.307-0.071-0.406-0.204 c-0.166-0.224-0.12-0.541,0.104-0.707c0.917-0.681,1.772-1.432,2.54-2.231c0.194-0.202,0.513-0.208,0.715-0.014 c0.201,0.193,0.207,0.513,0.014,0.715c-0.807,0.839-1.703,1.627-2.666,2.342C66.983,56.948,66.877,56.98,66.773,56.98z M71.547,51.995c-0.096,0-0.194-0.027-0.28-0.085c-0.233-0.155-0.295-0.469-0.14-0.701c0.621-0.931,1.163-1.928,1.613-2.963 c0.111-0.256,0.409-0.374,0.665-0.263c0.256,0.111,0.374,0.409,0.263,0.665c-0.473,1.091-1.044,2.141-1.699,3.122 C71.87,51.916,71.71,51.995,71.547,51.995z M74.303,45.668c-0.04,0-0.08-0.005-0.12-0.014c-0.271-0.066-0.437-0.34-0.371-0.611 c0.262-1.073,0.445-2.198,0.544-3.344c0.024-0.278,0.26-0.491,0.547-0.46c0.278,0.024,0.484,0.269,0.46,0.547 c-0.103,1.197-0.294,2.373-0.568,3.497C74.737,45.513,74.53,45.668,74.303,45.668z"/> </g> <g> <path fill="#e6e6e6" d="M74.916,38.734c-0.268,0-0.491-0.211-0.505-0.481c-0.027-0.562-0.074-1.145-0.139-1.735 c-0.031-0.277,0.17-0.527,0.447-0.558c0.279-0.032,0.527,0.17,0.558,0.447c0.067,0.61,0.116,1.214,0.144,1.796 c0.013,0.279-0.202,0.516-0.48,0.53C74.933,38.734,74.924,38.734,74.916,38.734z"/> </g> </g> <path fill="#e6e6e6" d="M75.206,33.474l1.072-1.073c0.198-0.197,0.198-0.518,0-0.715c-0.198-0.197-0.517-0.197-0.715,0 l-1.072,1.073l-1.072-1.073c-0.198-0.197-0.517-0.197-0.715,0c-0.198,0.197-0.198,0.517,0,0.715l1.072,1.073l-1.072,1.073 c-0.198,0.197-0.198,0.518,0,0.715c0.099,0.099,0.228,0.148,0.357,0.148c0.129,0,0.259-0.049,0.357-0.148l1.072-1.073l1.072,1.073 c0.099,0.099,0.228,0.148,0.357,0.148s0.259-0.049,0.357-0.148c0.198-0.197,0.198-0.517,0-0.715L75.206,33.474z"/> <g> <path fill="#e6e6e6" d="M24.127,80.87c-1.905,0-3.455-1.55-3.455-3.455c0-1.905,1.55-3.455,3.455-3.455 c1.905,0,3.455,1.55,3.455,3.455C27.581,79.32,26.032,80.87,24.127,80.87z M24.127,74.972c-1.347,0-2.444,1.096-2.444,2.443 s1.096,2.444,2.444,2.444c1.347,0,2.444-1.096,2.444-2.444S25.474,74.972,24.127,74.972z"/> </g> <g> <path fill="#e6e6e6" d="M54.168,87.88c-2.011,0-3.539-0.707-4.105-1.947c-1.449-3.176-1.567-3.435-5.027-1.935 c-2.534,1.099-3.574,0.449-3.969-0.037c-0.743-0.914-0.412-2.512,0.91-4.384l0,0c0.643-0.91,0.931-2.025,1.235-3.205 c0.988-3.825,2.108-8.16,15.271-8.259c9.384-0.07,13.169-2.934,15.431-4.645c1.752-1.325,2.909-2.199,4.82,0.293 c2.494,3.252,0.33,5.365-1.25,6.908c-1.085,1.06-1.724,1.753-1.46,2.447c0.132,0.346,0.119,0.698-0.037,1.017 c-0.475,0.968-2.163,1.483-4.499,2.194c-3.393,1.034-7.615,2.32-8.208,5.284c-0.742,3.711-4.68,5.818-8.026,6.204 C54.88,87.859,54.516,87.88,54.168,87.88z M47.86,82.119c1.403,0,2.06,1.064,3.124,3.395c0.467,1.025,2.093,1.535,4.155,1.297 c3.088-0.357,6.536-2.326,7.15-5.399c0.711-3.556,5.254-4.941,8.905-6.053c1.772-0.54,3.604-1.098,3.885-1.672 c0.028-0.056,0.038-0.113,0-0.212c-0.519-1.364,0.608-2.465,1.699-3.53c1.595-1.558,3.101-3.029,1.153-5.569 c-1.299-1.695-1.663-1.422-3.407-0.102c-2.362,1.787-6.314,4.778-16.033,4.85c-12.387,0.092-13.359,3.858-14.3,7.5 c-0.314,1.216-0.639,2.473-1.388,3.535l0,0c-1.131,1.602-1.293,2.743-0.951,3.163c0.277,0.34,1.152,0.453,2.782-0.253 C46.071,82.448,47.08,82.119,47.86,82.119z"/> </g> <g> <path fill="#e6e6e6" d="M47.282,77.299c-0.024,0-0.047-0.001-0.072-0.005c-0.275-0.039-0.466-0.29-0.43-0.565 c0.105-0.787,0.903-2.273,3.069-2.204c0.279,0.007,0.5,0.239,0.493,0.518c-0.007,0.279-0.251,0.508-0.518,0.492 c-0.033-0.001-0.064-0.001-0.095-0.001c-1.692,0-1.925,1.195-1.946,1.333C47.744,77.117,47.529,77.299,47.282,77.299z"/> </g> <g> <path fill="#e6e6e6" d="M60.755,73.556c-0.024,0-0.047-0.001-0.072-0.005c-0.275-0.039-0.466-0.29-0.43-0.565 c0.105-0.787,0.902-2.274,3.069-2.204c0.279,0.007,0.5,0.239,0.493,0.518c-0.007,0.275-0.232,0.493-0.506,0.493 c-0.004,0-0.008,0-0.013,0c-0.033-0.001-0.064-0.001-0.095-0.001c-1.692,0-1.925,1.195-1.946,1.333 C61.217,73.375,61.001,73.556,60.755,73.556z"/> </g> <g> <path fill="#e6e6e6" d="M71.117,72.673c-0.024,0-0.047-0.001-0.072-0.005c-0.275-0.039-0.466-0.29-0.43-0.565 c0.105-0.787,0.902-2.274,3.069-2.204c0.279,0.007,0.5,0.239,0.493,0.518c-0.007,0.279-0.252,0.509-0.518,0.492 c-0.033-0.001-0.064-0.001-0.095-0.001c-1.692,0-1.925,1.195-1.946,1.333C71.58,72.492,71.364,72.673,71.117,72.673z"/> </g> <g> <path fill="#e6e6e6" d="M55.433,83.529c-0.024,0-0.047-0.001-0.072-0.005c-0.275-0.039-0.466-0.29-0.43-0.565 c0.105-0.787,0.899-2.269,3.069-2.204c0.279,0.007,0.5,0.239,0.493,0.518c-0.007,0.279-0.231,0.505-0.518,0.492 c-0.033-0.001-0.064-0.001-0.095-0.001c-1.692,0-1.925,1.195-1.946,1.333C55.896,83.347,55.68,83.529,55.433,83.529z"/> </g> </g> </g>
</svg>