<!DOCTYPE svg PUBLIC "-//W3C//DTD SVG 1.1//EN" "http://www.w3.org/Graphics/SVG/1.1/DTD/svg11.dtd">
<!-- Uploaded to: SVG Repo, www.svgrepo.com, Transformed by: SVG Repo Mixer Tools -->
<svg height="256px" width="256px" version="1.1" id="Layer_1" xmlns="http://www.w3.org/2000/svg" xmlns:xlink="http://www.w3.org/1999/xlink" viewBox="0 0 100.00 100.00" enable-background="new 0 0 100 100" xml:space="preserve" fill="#ffffff" stroke="#ffffff" stroke-width="0.001">
<g id="SVGRepo_bgCarrier" stroke-width="0"/>
<g id="SVGRepo_tracerCarrier" stroke-linecap="round" stroke-linejoin="round"/>
<g id="SVGRepo_iconCarrier"> <g> <ellipse fill="#aba6a6FFFFFF" cx="50" cy="50.017" rx="38.594" ry="38.609"/> <ellipse fill="#aba6a6FFFFFF" cx="50" cy="50.017" rx="19.045" ry="38.609"/> <path fill="#aba6a6FFFFFF" d="M23.78,21.696C30.665,28.077,39.875,31.982,50,31.982s19.335-3.906,26.22-10.287 C69.335,15.314,60.125,11.409,50,11.409S30.665,15.314,23.78,21.696z"/> <path fill="#aba6a6FFFFFF" d="M23.78,78.339C30.665,71.958,39.875,68.052,50,68.052s19.335,3.906,26.22,10.287 C69.335,84.721,60.125,88.626,50,88.626S30.665,84.721,23.78,78.339z"/> <g> <path fill="#aba6a6" d="M89.1,50.017c0-11.288-4.81-21.468-12.481-28.614c-0.019-0.026-0.032-0.056-0.056-0.079 c-2.415-2.238-5.076-4.133-7.911-5.676c-0.03-0.016-0.061-0.032-0.091-0.049c-0.506-0.274-1.018-0.537-1.536-0.788 c-0.079-0.038-0.159-0.076-0.239-0.114c-0.469-0.224-0.942-0.438-1.419-0.643C65.24,14,65.11,13.947,64.981,13.893 c-0.432-0.179-0.866-0.352-1.304-0.515c-0.173-0.065-0.347-0.128-0.522-0.191c-0.398-0.142-0.799-0.278-1.202-0.408 c-0.213-0.068-0.426-0.136-0.64-0.201c-0.371-0.112-0.744-0.217-1.118-0.318c-0.244-0.066-0.488-0.132-0.734-0.193 c-0.353-0.088-0.709-0.168-1.065-0.246c-0.265-0.058-0.53-0.118-0.798-0.17c-0.347-0.069-0.696-0.128-1.046-0.187 c-0.276-0.047-0.551-0.096-0.829-0.137c-0.358-0.053-0.719-0.095-1.079-0.138c-0.27-0.032-0.538-0.069-0.809-0.095 c-0.404-0.04-0.811-0.066-1.218-0.093c-0.23-0.015-0.458-0.037-0.689-0.048c-0.641-0.031-1.283-0.049-1.928-0.049 s-1.287,0.018-1.928,0.049c-0.231,0.011-0.459,0.033-0.689,0.048c-0.407,0.027-0.813,0.053-1.218,0.093 c-0.271,0.027-0.54,0.063-0.809,0.095c-0.361,0.043-0.721,0.085-1.079,0.138c-0.278,0.041-0.553,0.09-0.83,0.137 c-0.349,0.059-0.698,0.119-1.046,0.187c-0.268,0.053-0.533,0.112-0.798,0.171c-0.356,0.078-0.711,0.158-1.065,0.246 c-0.246,0.061-0.49,0.127-0.734,0.193c-0.374,0.101-0.747,0.206-1.118,0.318c-0.214,0.065-0.427,0.132-0.64,0.201 c-0.403,0.129-0.803,0.265-1.202,0.408c-0.174,0.063-0.348,0.126-0.521,0.191c-0.438,0.164-0.872,0.336-1.304,0.515 c-0.129,0.054-0.258,0.107-0.387,0.162c-0.477,0.204-0.95,0.419-1.419,0.643c-0.079,0.038-0.159,0.075-0.239,0.113 c-0.517,0.251-1.029,0.514-1.536,0.788c-0.03,0.016-0.061,0.032-0.091,0.049c-2.835,1.543-5.496,3.438-7.911,5.676 c-0.024,0.022-0.037,0.053-0.056,0.079C15.71,28.549,10.9,38.73,10.9,50.017s4.81,21.468,12.481,28.614 c0.019,0.026,0.032,0.056,0.056,0.079c2.415,2.238,5.076,4.133,7.911,5.676c0.03,0.016,0.061,0.032,0.091,0.049 c0.506,0.274,1.018,0.537,1.536,0.788c0.079,0.038,0.159,0.075,0.239,0.113c0.47,0.224,0.943,0.439,1.42,0.643 c0.128,0.055,0.256,0.108,0.385,0.161c0.432,0.18,0.867,0.352,1.306,0.516c0.173,0.065,0.347,0.128,0.521,0.191 c0.398,0.142,0.799,0.278,1.202,0.408c0.213,0.068,0.426,0.136,0.64,0.201c0.371,0.112,0.744,0.217,1.118,0.318 c0.244,0.066,0.488,0.132,0.734,0.193c0.353,0.088,0.709,0.168,1.065,0.246c0.266,0.058,0.531,0.118,0.798,0.171 c0.347,0.069,0.696,0.128,1.046,0.187c0.276,0.047,0.551,0.096,0.83,0.137c0.358,0.053,0.719,0.095,1.079,0.138 c0.27,0.032,0.538,0.069,0.809,0.095c0.404,0.04,0.811,0.066,1.218,0.093c0.23,0.015,0.458,0.037,0.689,0.048 c0.641,0.031,1.283,0.049,1.928,0.049s1.287-0.018,1.928-0.049c0.231-0.011,0.459-0.033,0.689-0.048 c0.407-0.027,0.813-0.053,1.218-0.093c0.271-0.027,0.54-0.063,0.809-0.095c0.361-0.043,0.721-0.085,1.079-0.138 c0.278-0.041,0.553-0.09,0.829-0.137c0.35-0.059,0.699-0.119,1.046-0.187c0.267-0.053,0.532-0.112,0.798-0.17 c0.356-0.078,0.712-0.158,1.065-0.246c0.246-0.061,0.49-0.127,0.734-0.193c0.374-0.101,0.747-0.206,1.118-0.318 c0.214-0.065,0.427-0.132,0.64-0.201c0.403-0.129,0.803-0.265,1.202-0.408c0.174-0.063,0.348-0.126,0.521-0.191 c0.438-0.164,0.873-0.336,1.305-0.516c0.129-0.054,0.258-0.107,0.386-0.162c0.478-0.205,0.951-0.42,1.42-0.643 c0.079-0.038,0.159-0.075,0.239-0.113c0.517-0.251,1.029-0.514,1.536-0.788c0.03-0.016,0.061-0.032,0.091-0.049 c2.835-1.543,5.496-3.438,7.911-5.676c0.024-0.022,0.037-0.053,0.056-0.079C84.29,71.486,89.1,61.305,89.1,50.017z M88.076,49.512 H69.544c-0.049-7.599-1.186-14.678-3.113-20.65c3.527-1.637,6.818-3.807,9.762-6.468C83.397,29.233,87.936,38.848,88.076,49.512z M64.875,85.093c-0.079,0.033-0.158,0.064-0.237,0.097c-0.464,0.194-0.932,0.379-1.405,0.555 c-0.148,0.055-0.296,0.106-0.445,0.159c-0.407,0.146-0.817,0.285-1.23,0.417c-0.197,0.063-0.394,0.122-0.592,0.182 c-0.37,0.111-0.742,0.217-1.116,0.318c-0.231,0.062-0.462,0.122-0.694,0.179c-0.348,0.086-0.699,0.167-1.051,0.243 c-0.252,0.055-0.505,0.109-0.758,0.159c-0.341,0.067-0.685,0.127-1.029,0.184c-0.262,0.044-0.524,0.089-0.787,0.128 c-0.14,0.02-0.282,0.035-0.422,0.054c4.527-2.456,8.407-8.088,11.001-15.627c3.372,1.578,6.524,3.648,9.347,6.189 C72.349,81.131,68.779,83.43,64.875,85.093z M43.681,87.586c-0.344-0.058-0.688-0.117-1.029-0.184 c-0.253-0.05-0.506-0.104-0.758-0.159c-0.352-0.077-0.703-0.157-1.051-0.243c-0.232-0.057-0.463-0.117-0.694-0.179 c-0.374-0.1-0.746-0.206-1.116-0.318c-0.198-0.059-0.395-0.119-0.592-0.182c-0.413-0.132-0.823-0.272-1.23-0.417 c-0.148-0.053-0.297-0.104-0.445-0.159c-0.473-0.176-0.941-0.361-1.405-0.555c-0.079-0.033-0.158-0.064-0.237-0.097 c-3.904-1.663-7.474-3.962-10.584-6.763c2.823-2.54,5.976-4.611,9.347-6.189c2.594,7.539,6.474,13.171,11.001,15.627 c-0.14-0.019-0.282-0.033-0.422-0.054C44.205,87.675,43.943,87.63,43.681,87.586z M35.125,14.942 c0.079-0.033,0.158-0.064,0.237-0.097c0.464-0.194,0.932-0.379,1.405-0.555c0.148-0.055,0.296-0.106,0.445-0.159 c0.407-0.146,0.817-0.285,1.23-0.417c0.197-0.063,0.394-0.122,0.592-0.182c0.37-0.111,0.742-0.217,1.116-0.318 c0.231-0.062,0.462-0.122,0.694-0.179c0.348-0.086,0.699-0.167,1.051-0.243c0.252-0.055,0.505-0.109,0.758-0.159 c0.341-0.067,0.685-0.127,1.029-0.184c0.262-0.044,0.524-0.089,0.787-0.128c0.14-0.02,0.282-0.035,0.422-0.054 c-4.527,2.456-8.407,8.088-11.001,15.627c-3.372-1.578-6.524-3.648-9.347-6.189C27.651,18.904,31.221,16.605,35.125,14.942z M56.319,12.449c0.344,0.058,0.688,0.117,1.029,0.184c0.253,0.05,0.506,0.104,0.758,0.159c0.352,0.077,0.703,0.157,1.051,0.243 c0.232,0.057,0.463,0.117,0.694,0.179c0.374,0.1,0.746,0.206,1.116,0.318c0.198,0.059,0.395,0.119,0.592,0.182 c0.413,0.132,0.823,0.272,1.23,0.417c0.148,0.053,0.297,0.104,0.445,0.159c0.473,0.176,0.941,0.361,1.405,0.555 c0.079,0.033,0.158,0.064,0.237,0.097c3.904,1.663,7.474,3.962,10.584,6.763c-2.823,2.54-5.976,4.611-9.347,6.189 c-2.594-7.539-6.474-13.171-11.001-15.627c0.14,0.019,0.282,0.033,0.422,0.054C55.795,12.359,56.057,12.405,56.319,12.449z M65.223,28.306c-4.603,2.01-9.594,3.092-14.717,3.159V11.941C56.596,12.279,61.961,18.676,65.223,28.306z M49.494,11.941v19.524 c-5.123-0.067-10.114-1.149-14.717-3.159C38.039,18.676,43.404,12.279,49.494,11.941z M49.494,32.476v17.035H31.467 c0.048-7.458,1.143-14.403,2.997-20.247C39.168,31.306,44.264,32.409,49.494,32.476z M49.494,50.523v17.035 c-5.231,0.067-10.326,1.17-15.031,3.211c-1.854-5.843-2.949-12.788-2.997-20.247H49.494z M49.494,68.57v19.524 c-6.09-0.338-11.455-6.735-14.717-16.365C39.38,69.719,44.372,68.637,49.494,68.57z M50.506,88.094V68.57 c5.123,0.067,10.114,1.149,14.717,3.159C61.961,81.359,56.596,87.756,50.506,88.094z M50.506,67.558V50.523h18.028 c-0.048,7.458-1.143,14.403-2.997,20.247C60.832,68.729,55.736,67.626,50.506,67.558z M50.506,49.512V32.476 c5.231-0.067,10.326-1.17,15.031-3.211c1.854,5.843,2.949,12.788,2.997,20.247H50.506z M23.807,22.394 c2.944,2.661,6.235,4.831,9.762,6.468c-1.927,5.971-3.064,13.051-3.113,20.65H11.924C12.064,38.848,16.603,29.233,23.807,22.394z M11.924,50.523h18.532c0.049,7.599,1.186,14.678,3.113,20.65c-3.527,1.637-6.818,3.807-9.762,6.468 C16.603,70.802,12.064,61.187,11.924,50.523z M76.193,77.641c-2.944-2.661-6.235-4.831-9.762-6.468 c1.927-5.971,3.064-13.051,3.113-20.65h18.532C87.936,61.187,83.397,70.802,76.193,77.641z"/> <path fill="#aba6a6" d="M21.812,16.082c0.113,0,0.226-0.038,0.32-0.115c0.91-0.746,1.861-1.464,2.827-2.134 c0.229-0.159,0.286-0.474,0.127-0.704c-0.159-0.23-0.474-0.287-0.704-0.127c-0.988,0.685-1.96,1.42-2.891,2.183 c-0.216,0.177-0.247,0.496-0.071,0.712C21.521,16.019,21.666,16.082,21.812,16.082z"/> <path fill="#aba6a6" d="M41.023,6.918c0.034,0,0.068-0.003,0.102-0.01c1.15-0.236,2.326-0.428,3.494-0.57 c0.277-0.034,0.475-0.286,0.44-0.563c-0.034-0.277-0.281-0.474-0.563-0.441c-1.195,0.146-2.398,0.342-3.575,0.583 c-0.274,0.056-0.45,0.323-0.394,0.597C40.577,6.754,40.788,6.918,41.023,6.918z"/> <path fill="#aba6a6" d="M27.694,12.001c0.086,0,0.173-0.022,0.253-0.068c1.019-0.592,2.072-1.148,3.13-1.653 c0.252-0.12,0.359-0.422,0.238-0.674c-0.119-0.252-0.421-0.359-0.674-0.239c-1.082,0.517-2.16,1.085-3.203,1.691 c-0.241,0.14-0.324,0.45-0.184,0.691C27.35,11.911,27.52,12.001,27.694,12.001z"/> <path fill="#aba6a6" d="M5.692,54.157c0.278-0.022,0.486-0.266,0.464-0.545c-0.095-1.17-0.143-2.362-0.145-3.541 c0-0.279-0.227-0.505-0.506-0.505h0C5.226,49.566,5,49.793,5,50.073c0.001,1.205,0.051,2.424,0.148,3.621 c0.022,0.265,0.243,0.465,0.504,0.465C5.665,54.158,5.678,54.158,5.692,54.157z"/> <path fill="#aba6a6" d="M8.834,33.087c0.065,0.027,0.132,0.041,0.198,0.041c0.197,0,0.384-0.116,0.465-0.308 c0.461-1.085,0.972-2.163,1.517-3.204c0.13-0.247,0.034-0.553-0.213-0.683c-0.248-0.13-0.554-0.034-0.683,0.213 c-0.558,1.065-1.08,2.168-1.552,3.278C8.457,32.681,8.577,32.978,8.834,33.087z"/> <path fill="#aba6a6" d="M6.655,39.912c0.04,0.01,0.08,0.015,0.12,0.015c0.228,0,0.434-0.155,0.491-0.386 c0.278-1.142,0.608-2.287,0.979-3.405c0.088-0.265-0.056-0.551-0.321-0.639s-0.551,0.056-0.639,0.321 c-0.379,1.143-0.716,2.315-1.001,3.483C6.217,39.572,6.384,39.846,6.655,39.912z"/> <path fill="#aba6a6" d="M16.656,21.051c0.14,0,0.279-0.058,0.379-0.171c0.78-0.882,1.604-1.743,2.451-2.559 c0.201-0.194,0.207-0.514,0.014-0.715c-0.194-0.201-0.515-0.207-0.715-0.013c-0.867,0.835-1.71,1.715-2.507,2.617 c-0.185,0.209-0.165,0.529,0.044,0.714C16.417,21.009,16.537,21.051,16.656,21.051z"/> <path fill="#aba6a6" d="M5.604,46.996c0.013,0.001,0.027,0.001,0.04,0.001c0.261,0,0.483-0.201,0.504-0.466 c0.091-1.172,0.232-2.356,0.418-3.518c0.044-0.276-0.144-0.535-0.419-0.579c-0.28-0.045-0.535,0.144-0.579,0.42 c-0.19,1.189-0.334,2.399-0.428,3.598C5.118,46.73,5.325,46.974,5.604,46.996z"/> <path fill="#aba6a6" d="M12.087,26.703c0.084,0.053,0.177,0.078,0.27,0.078c0.168,0,0.332-0.083,0.428-0.236 c0.628-0.995,1.305-1.976,2.012-2.918c0.167-0.223,0.122-0.54-0.101-0.708c-0.224-0.168-0.541-0.123-0.708,0.101 c-0.723,0.963-1.415,1.967-2.058,2.985C11.78,26.241,11.851,26.553,12.087,26.703z"/> <path fill="#aba6a6" d="M93.409,42.854c0.19,1.161,0.335,2.344,0.431,3.516c0.022,0.265,0.243,0.465,0.504,0.465 c0.014,0,0.028,0,0.042-0.002c0.278-0.023,0.485-0.267,0.463-0.545c-0.098-1.199-0.247-2.409-0.441-3.597 c-0.045-0.276-0.305-0.462-0.581-0.417C93.55,42.318,93.364,42.578,93.409,42.854z"/> <path fill="#aba6a6" d="M82.87,20.772c0.1,0.112,0.238,0.17,0.378,0.17c0.119,0,0.24-0.042,0.336-0.128 c0.208-0.186,0.227-0.505,0.041-0.714c-0.798-0.898-1.645-1.776-2.515-2.609c-0.201-0.192-0.521-0.186-0.715,0.016 c-0.193,0.202-0.186,0.522,0.016,0.715C81.262,19.036,82.089,19.894,82.87,20.772z"/> <path fill="#aba6a6" d="M90.442,32.676c0.082,0.192,0.269,0.307,0.465,0.307c0.067,0,0.134-0.013,0.199-0.041 c0.256-0.11,0.375-0.408,0.265-0.664c-0.473-1.103-0.998-2.203-1.562-3.268c-0.13-0.247-0.436-0.342-0.683-0.211 c-0.247,0.131-0.341,0.437-0.21,0.684C89.466,30.523,89.979,31.598,90.442,32.676z"/> <path fill="#aba6a6" d="M87.136,26.42c0.096,0.151,0.26,0.234,0.427,0.234c0.093,0,0.187-0.025,0.271-0.079 c0.236-0.15,0.305-0.463,0.155-0.698c-0.646-1.014-1.341-2.015-2.066-2.976c-0.168-0.223-0.486-0.267-0.708-0.099 c-0.223,0.168-0.267,0.486-0.099,0.709C85.826,24.45,86.505,25.429,87.136,26.42z"/> <path fill="#aba6a6" d="M77.756,15.876c0.094,0.076,0.206,0.113,0.318,0.113c0.147,0,0.293-0.064,0.393-0.186 c0.176-0.217,0.144-0.535-0.073-0.712c-0.935-0.761-1.911-1.493-2.9-2.174c-0.231-0.159-0.545-0.1-0.703,0.13 c-0.159,0.23-0.101,0.545,0.129,0.704C75.887,14.416,76.841,15.131,77.756,15.876z"/> <path fill="#aba6a6" d="M92.696,39.384c0.057,0.23,0.264,0.384,0.49,0.384c0.04,0,0.081-0.005,0.122-0.015 c0.271-0.067,0.436-0.342,0.369-0.613c-0.291-1.17-0.632-2.341-1.014-3.479c-0.089-0.265-0.376-0.407-0.64-0.318 c-0.265,0.089-0.407,0.376-0.318,0.64C92.078,37.096,92.412,38.24,92.696,39.384z"/> <path fill="#aba6a6" d="M55.223,6.319c1.168,0.138,2.344,0.326,3.497,0.557c0.034,0.007,0.067,0.01,0.1,0.01 c0.236,0,0.447-0.166,0.495-0.406c0.055-0.274-0.122-0.541-0.396-0.596c-1.18-0.237-2.383-0.429-3.578-0.57 c-0.28-0.033-0.528,0.166-0.561,0.443C54.747,6.035,54.945,6.286,55.223,6.319z"/> <path fill="#aba6a6" d="M48.128,6.051c0.007,0,0.014,0,0.021,0c0.611-0.025,1.228-0.038,1.834-0.038 c0.575,0.016,1.142,0.011,1.709,0.032c0.294,0.007,0.514-0.207,0.524-0.487c0.011-0.279-0.207-0.514-0.486-0.525 C51.156,5.012,50.58,5.001,50,5.001c-0.624-0.004-1.262,0.013-1.892,0.039c-0.279,0.011-0.496,0.247-0.484,0.526 C47.635,5.838,47.859,6.051,48.128,6.051z"/> <path fill="#aba6a6" d="M62.16,7.715c1.13,0.324,2.261,0.699,3.362,1.115c0.059,0.022,0.119,0.033,0.178,0.033 c0.204,0,0.396-0.125,0.473-0.327c0.099-0.261-0.033-0.553-0.295-0.652c-1.125-0.425-2.282-0.809-3.439-1.141 c-0.268-0.078-0.548,0.078-0.626,0.347C61.737,7.358,61.892,7.638,62.16,7.715z"/> <path fill="#aba6a6" d="M68.784,10.214c1.062,0.502,2.118,1.055,3.14,1.644c0.079,0.046,0.166,0.067,0.252,0.067 c0.175,0,0.345-0.091,0.438-0.253c0.14-0.242,0.056-0.551-0.186-0.691c-1.045-0.602-2.126-1.168-3.212-1.681 c-0.254-0.12-0.554-0.011-0.674,0.241C68.424,9.793,68.532,10.095,68.784,10.214z"/> <path fill="#aba6a6" d="M34.15,8.919c0.06,0,0.121-0.011,0.18-0.033c1.098-0.419,2.227-0.798,3.357-1.127 c0.268-0.078,0.422-0.359,0.344-0.627c-0.078-0.268-0.359-0.424-0.627-0.344c-1.156,0.336-2.312,0.724-3.435,1.153 c-0.261,0.1-0.392,0.392-0.292,0.653C33.755,8.795,33.947,8.919,34.15,8.919z"/> <path fill="#aba6a6" d="M62.261,92.291c-1.13,0.327-2.287,0.613-3.439,0.847c-0.274,0.056-0.45,0.323-0.395,0.596 c0.048,0.24,0.259,0.405,0.495,0.405c0.034,0,0.067-0.003,0.101-0.01c1.178-0.24,2.362-0.531,3.519-0.866 c0.268-0.078,0.423-0.358,0.345-0.627C62.81,92.368,62.53,92.213,62.261,92.291z"/> <path fill="#aba6a6" d="M74.997,86.232c-0.97,0.671-1.977,1.309-2.991,1.896c-0.241,0.14-0.324,0.449-0.184,0.691 c0.094,0.162,0.263,0.252,0.438,0.252c0.086,0,0.173-0.022,0.253-0.068c1.038-0.601,2.067-1.254,3.059-1.94 c0.23-0.159,0.287-0.474,0.128-0.704C75.542,86.13,75.226,86.073,74.997,86.232z"/> <path fill="#aba6a6" d="M85.172,76.45c-0.707,0.94-1.462,1.863-2.242,2.744c-0.185,0.209-0.166,0.529,0.043,0.714 c0.096,0.085,0.216,0.127,0.335,0.127c0.139,0,0.278-0.058,0.378-0.17c0.798-0.901,1.57-1.845,2.293-2.807 c0.168-0.223,0.123-0.54-0.1-0.708C85.656,76.182,85.34,76.228,85.172,76.45z"/> <path fill="#aba6a6" d="M68.874,89.778c-1.062,0.505-2.157,0.973-3.255,1.39c-0.261,0.099-0.392,0.391-0.293,0.653 c0.077,0.202,0.269,0.326,0.473,0.326c0.06,0,0.12-0.011,0.18-0.033c1.123-0.427,2.243-0.905,3.33-1.423 c0.252-0.12,0.359-0.422,0.239-0.674C69.428,89.765,69.127,89.657,68.874,89.778z"/> <path fill="#aba6a6" d="M80.476,81.75c-0.848,0.815-1.74,1.606-2.651,2.351c-0.216,0.177-0.248,0.495-0.072,0.712 c0.1,0.122,0.245,0.186,0.392,0.186c0.113,0,0.226-0.037,0.319-0.114c0.931-0.762,1.843-1.571,2.711-2.405 c0.201-0.194,0.208-0.514,0.014-0.715C80.997,81.563,80.677,81.557,80.476,81.75z"/> <path fill="#aba6a6" d="M94.006,56.656c-0.277-0.046-0.535,0.143-0.58,0.419c-0.187,1.164-0.424,2.332-0.704,3.472 c-0.067,0.271,0.099,0.545,0.37,0.612c0.04,0.01,0.081,0.015,0.121,0.015c0.227,0,0.434-0.154,0.49-0.385 c0.287-1.166,0.529-2.361,0.721-3.552C94.469,56.96,94.282,56.7,94.006,56.656z"/> <path fill="#aba6a6" d="M94.494,49.403c-0.279,0-0.506,0.226-0.506,0.506v0.108c0,1.179-0.047,2.369-0.14,3.54 c-0.022,0.278,0.186,0.522,0.464,0.544c0.013,0.001,0.027,0.001,0.04,0.001c0.261,0,0.482-0.201,0.504-0.466 C94.952,52.441,95,51.223,95,50.017v-0.108C95,49.63,94.774,49.403,94.494,49.403z"/> <path fill="#aba6a6" d="M7.292,60.599c-0.281-1.139-0.519-2.307-0.709-3.471c-0.045-0.275-0.304-0.465-0.58-0.418 c-0.276,0.045-0.463,0.305-0.418,0.58c0.194,1.191,0.438,2.385,0.725,3.551c0.057,0.23,0.263,0.385,0.49,0.385 c0.04,0,0.081-0.005,0.121-0.015C7.193,61.144,7.359,60.87,7.292,60.599z"/> <path fill="#aba6a6" d="M92.379,63.63c-0.267-0.089-0.551,0.055-0.639,0.32c-0.372,1.115-0.795,2.231-1.257,3.315 c-0.11,0.257,0.01,0.554,0.267,0.664c0.065,0.028,0.132,0.041,0.198,0.041c0.196,0,0.383-0.115,0.465-0.308 c0.473-1.109,0.906-2.25,1.286-3.392C92.786,64.005,92.643,63.718,92.379,63.63z"/> <path fill="#aba6a6" d="M89.644,70.254c-0.246-0.13-0.553-0.035-0.683,0.212c-0.547,1.041-1.144,2.073-1.774,3.068 c-0.15,0.236-0.079,0.549,0.157,0.698c0.084,0.053,0.178,0.079,0.27,0.079c0.167,0,0.331-0.083,0.428-0.235 c0.644-1.018,1.255-2.074,1.815-3.139C89.986,70.69,89.891,70.385,89.644,70.254z"/> <path fill="#aba6a6" d="M14.852,76.481c-0.168-0.222-0.484-0.268-0.709-0.099c-0.223,0.168-0.267,0.485-0.099,0.708 c0.725,0.962,1.498,1.905,2.295,2.804c0.1,0.113,0.239,0.17,0.378,0.17c0.119,0,0.239-0.042,0.336-0.128 c0.209-0.185,0.228-0.505,0.042-0.714C16.315,78.344,15.56,77.422,14.852,76.481z"/> <path fill="#aba6a6" d="M11.06,70.505c-0.131-0.247-0.436-0.341-0.683-0.212c-0.247,0.13-0.342,0.436-0.212,0.683 c0.56,1.063,1.171,2.117,1.816,3.134c0.096,0.152,0.26,0.235,0.428,0.235c0.093,0,0.187-0.025,0.271-0.079 c0.236-0.15,0.306-0.462,0.156-0.698C12.204,72.575,11.607,71.544,11.06,70.505z"/> <path fill="#aba6a6" d="M19.551,81.776c-0.202-0.193-0.522-0.187-0.715,0.015c-0.194,0.202-0.187,0.522,0.015,0.715 c0.869,0.833,1.782,1.642,2.713,2.403c0.094,0.077,0.207,0.114,0.319,0.114c0.147,0,0.292-0.063,0.392-0.186 c0.177-0.216,0.145-0.535-0.072-0.712C21.293,83.381,20.4,82.591,19.551,81.776z"/> <path fill="#aba6a6" d="M8.278,64.001c-0.089-0.265-0.375-0.407-0.64-0.319c-0.265,0.089-0.408,0.375-0.319,0.64 c0.382,1.14,0.815,2.279,1.288,3.385c0.082,0.192,0.269,0.307,0.465,0.307c0.067,0,0.134-0.013,0.199-0.041 c0.257-0.11,0.376-0.407,0.266-0.664C9.075,66.228,8.651,65.115,8.278,64.001z"/> <path fill="#aba6a6" d="M55.327,93.703c-1.164,0.14-2.351,0.236-3.529,0.284c-0.279,0.011-0.496,0.247-0.485,0.526 c0.011,0.272,0.235,0.485,0.505,0.485c0.007,0,0.014,0,0.021,0c1.205-0.049,2.42-0.146,3.61-0.29 c0.277-0.033,0.475-0.285,0.441-0.563C55.856,93.868,55.608,93.67,55.327,93.703z"/> <path fill="#aba6a6" d="M48.254,93.989c-1.176-0.046-2.364-0.14-3.53-0.279c-0.279-0.031-0.529,0.165-0.562,0.442 c-0.033,0.277,0.165,0.529,0.442,0.562c1.192,0.143,2.407,0.238,3.61,0.285c0.007,0,0.013,0,0.02,0 c0.27,0,0.494-0.214,0.505-0.486C48.75,94.235,48.533,94,48.254,93.989z"/> <path fill="#aba6a6" d="M41.227,93.148c-1.153-0.234-2.31-0.517-3.44-0.843c-0.27-0.076-0.549,0.078-0.626,0.346 c-0.078,0.268,0.078,0.549,0.346,0.626c1.155,0.333,2.339,0.623,3.52,0.862c0.034,0.007,0.068,0.01,0.101,0.01 c0.236,0,0.446-0.165,0.495-0.406C41.678,93.47,41.501,93.203,41.227,93.148z"/> <path fill="#aba6a6" d="M34.428,91.186c-1.098-0.416-2.195-0.883-3.26-1.389c-0.253-0.12-0.554-0.012-0.673,0.24 c-0.12,0.252-0.012,0.554,0.24,0.674c1.09,0.517,2.212,0.995,3.336,1.421c0.059,0.022,0.119,0.033,0.179,0.033 c0.204,0,0.396-0.125,0.473-0.327C34.821,91.577,34.689,91.285,34.428,91.186z"/> <path fill="#aba6a6" d="M28.03,88.15c-1.016-0.587-2.024-1.224-2.995-1.895c-0.231-0.159-0.545-0.101-0.704,0.129 c-0.158,0.23-0.101,0.545,0.129,0.704c0.993,0.686,2.024,1.338,3.064,1.938c0.079,0.046,0.166,0.068,0.252,0.068 c0.175,0,0.345-0.091,0.438-0.253C28.355,88.599,28.272,88.289,28.03,88.15z"/> </g> </g> </g>
</svg>